<svg width="20" height="20" viewBox="0 0 50 50" fill="none" xmlns="http://www.w3.org/2000/svg">
<path d="M25 0C11.1872 0 0 11.3578 0 25.3813C0 37.3094 8.0617 47.2091 18.9383 50C18.8128 49.6825 18.7511 49.2375 18.7511 48.7947V44.4788H15.6255C13.9383 44.4788 12.3745 43.7184 11.6872 42.3208C10.8745 40.7979 10.7489 38.4499 8.68723 36.9897C8.0617 36.4821 8.5617 35.9744 9.24894 36.0371C10.5617 36.4172 11.6234 37.3072 12.6234 38.6378C13.6234 39.9706 14.0617 40.2882 15.9362 40.2882C16.8106 40.2882 18.1851 40.2255 19.4362 40.0333C20.1234 38.2555 21.3106 36.67 22.7489 35.9096C14.3745 34.8944 10.3745 30.7059 10.3745 24.9946C10.3745 22.5191 11.4362 20.1711 13.1872 18.1406C12.6255 16.1727 11.8745 12.1117 13.4383 10.5262C17.1894 10.5262 19.4383 13.0017 20 13.6346C21.8745 12.9995 23.9383 12.6193 26.0617 12.6193C28.2489 12.6193 30.2489 12.9995 32.1234 13.6346C32.6851 12.9995 34.9362 10.5262 38.6851 10.5262C40.1851 12.0491 39.4979 16.1727 38.8723 18.1406C40.6234 20.1084 41.6234 22.5191 41.6234 24.9946C41.6234 30.7059 37.6851 34.8944 29.3745 35.7822C31.6872 36.9875 33.3128 40.4134 33.3128 42.9516V48.732C33.3128 48.9221 33.2511 49.1122 33.2511 49.3023C43 45.8764 50 36.4864 50 25.3813C50 11.3578 38.8128 0 25 0Z" fill="black"/>
</svg>
