<svg width="30" height="30" viewBox="0 0 21 21" fill="none" xmlns="http://www.w3.org/2000/svg">
<path d="M2.49971 16.5006L2.94693 16.7242L3.08525 16.4475L2.89947 16.2003L2.49971 16.5006ZM4.49943 18.5003L4.79974 18.1005L4.55246 17.9148L4.27582 18.0531L4.49943 18.5003ZM0.5 20.5L0.0527864 20.2764C-0.0434608 20.4689 -0.00573351 20.7014 0.146447 20.8536C0.298627 21.0057 0.531112 21.0435 0.723607 20.9472L0.5 20.5ZM6.5 6.50001L6.2 6.10001C6.0741 6.19444 6 6.34263 6 6.50001H6.5ZM14.5 14.5V15C14.6475 15 14.7875 14.9349 14.8825 14.8221L14.5 14.5ZM7.12146 6.03392L6.82146 5.63392L6.82146 5.63392L7.12146 6.03392ZM8.71373 6.70988L8.21759 6.7719L8.21759 6.7719L8.71373 6.70988ZM8.93934 8.5147L9.43548 8.45269L9.43548 8.45269L8.93934 8.5147ZM8.65417 9.34585L8.30061 8.99229L8.30061 8.99229L8.65417 9.34585ZM14.9433 13.9736L14.5608 13.6515L14.5608 13.6515L14.9433 13.9736ZM14.3232 12.34L14.3956 11.8453L14.3956 11.8453L14.3232 12.34ZM12.4968 12.0727L12.5692 11.578L12.4968 12.0727ZM11.6449 12.3551L11.9985 12.7086L11.9985 12.7086L11.6449 12.3551ZM1.22041e-05 10.5C1.22041e-05 12.8635 0.781495 15.0459 2.09995 16.8009L2.89947 16.2003C1.70665 14.6125 1.00001 12.6395 1.00001 10.5H1.22041e-05ZM10.5 0C4.70102 0 1.22041e-05 4.70101 1.22041e-05 10.5H1.00001C1.00001 5.2533 5.25331 1 10.5 1V0ZM21 10.5C21 4.70101 16.299 0 10.5 0V1C15.7467 1 20 5.2533 20 10.5H21ZM10.5 21C16.299 21 21 16.299 21 10.5H20C20 15.7467 15.7467 20 10.5 20V21ZM4.19911 18.9001C5.95415 20.2185 8.13654 21 10.5 21V20C8.36054 20 6.38755 19.2934 4.79974 18.1005L4.19911 18.9001ZM0.723607 20.9472L4.72303 18.9475L4.27582 18.0531L0.276393 20.0528L0.723607 20.9472ZM2.0525 16.277L0.0527864 20.2764L0.947214 20.7236L2.94693 16.7242L2.0525 16.277ZM6 6.50001V7.50001H7V6.50001H6ZM13.5 15H14.5V14H13.5V15ZM6 7.50001C6 11.6421 9.35786 15 13.5 15V14C9.91015 14 7 11.0899 7 7.50001H6ZM6.8 6.90001L7.42146 6.43392L6.82146 5.63392L6.2 6.10001L6.8 6.90001ZM8.21759 6.7719L8.4432 8.57672L9.43548 8.45269L9.20987 6.64787L8.21759 6.7719ZM8.30061 8.99229L7.14645 10.1465L7.85355 10.8536L9.00772 9.6994L8.30061 8.99229ZM8.4432 8.57672C8.46234 8.72982 8.40972 8.88319 8.30061 8.99229L9.00772 9.6994C9.33503 9.37209 9.49289 8.912 9.43548 8.45269L8.4432 8.57672ZM7.42146 6.43392C7.72858 6.20357 8.16998 6.39095 8.21759 6.7719L9.20987 6.64787C9.06702 5.50503 7.74284 4.94288 6.82146 5.63392L7.42146 6.43392ZM14.8825 14.8221L15.3258 14.2957L14.5608 13.6515L14.1175 14.1779L14.8825 14.8221ZM14.3956 11.8453L12.5692 11.578L12.4244 12.5675L14.2508 12.8347L14.3956 11.8453ZM11.2914 12.0015L10.1464 13.1465L10.8536 13.8536L11.9985 12.7086L11.2914 12.0015ZM12.5692 11.578C12.1003 11.5094 11.6265 11.6664 11.2914 12.0015L11.9985 12.7086C12.1102 12.5969 12.2681 12.5446 12.4244 12.5675L12.5692 11.578ZM15.3258 14.2957C16.0829 13.3965 15.5587 12.0155 14.3956 11.8453L14.2508 12.8347C14.6385 12.8915 14.8132 13.3518 14.5608 13.6515L15.3258 14.2957Z" fill="#ea544a"/>
</svg>
